<svg width="52" height="52" viewBox="0 0 52 52" fill="none" xmlns="http://www.w3.org/2000/svg">
<g clip-path="url(#clip0_42_13414)">
<rect width="30" height="30" transform="translate(11 11)" fill="#8E5B34"/>
<path d="M34 36.5L42.5 28.5L50 0L-8 1V26L2 36.5L10 28.5L18 38L25.5 28.5L29 31.5L34 36.5Z" fill="#0D1629"/>
<path fill-rule="evenodd" clip-rule="evenodd" d="M11 -1C11 0.462978 11.5772 1.86688 12.6063 2.90676L16.8153 7.16014C17.2801 7.62975 17.677 8.15395 18 8.71755C18.323 8.15395 18.7199 7.62975 19.1847 7.16014L23.3937 2.90676C24.4228 1.86688 25 0.462978 25 -1H27C27 0.462978 27.5772 1.86688 28.6063 2.90676L32.8153 7.16014C33.2801 7.62975 33.677 8.15395 34 8.71755C34.323 8.15395 34.7199 7.62975 35.1847 7.16014L39.3937 2.90676C40.4228 1.86688 41 0.462978 41 -1H43C43 0.989783 42.2149 2.89921 40.8153 4.31355L36.6063 8.56693C35.5772 9.60681 35 11.0107 35 12.4737C35 13.9367 35.5772 15.3406 36.6063 16.3804L40.8153 20.6338C42.2149 22.0482 43 23.9576 43 25.9474C43 27.9372 42.2149 29.8466 40.8153 31.2609L36.6063 35.5143C35.5772 36.5542 35 37.9581 35 39.4211C35 40.884 35.5772 42.2879 36.6063 43.3278L40.8153 47.5812C42.2149 48.9955 43 50.905 43 52.8947H41C41 51.4318 40.4228 50.0279 39.3937 48.988L35.1847 44.7346C34.7199 44.265 34.323 43.7408 34 43.1772C33.677 43.7408 33.2801 44.265 32.8153 44.7346L28.6063 48.988C27.5772 50.0279 27 51.4318 27 52.8947H25C25 51.4318 24.4228 50.0279 23.3937 48.988L19.1847 44.7346C18.7199 44.265 18.323 43.7408 18 43.1772C17.677 43.7408 17.2801 44.265 16.8153 44.7346L12.6063 48.988C11.5772 50.0279 11 51.4318 11 52.8947H9C9 50.905 9.78506 48.9955 11.1847 47.5812L15.3937 43.3278C16.4228 42.2879 17 40.884 17 39.4211C17 37.9581 16.4228 36.5542 15.3937 35.5143L11.1847 31.2609C9.78506 29.8466 9 27.9372 9 25.9474C9 23.9576 9.78506 22.0482 11.1847 20.6338L15.3937 16.3804C16.4228 15.3406 17 13.9367 17 12.4737C17 11.0107 16.4228 9.60681 15.3937 8.56693L11.1847 4.31355C9.78506 2.89921 9 0.989783 9 -1H11ZM18 16.2298C17.677 16.7934 17.2801 17.3176 16.8153 17.7872L12.6063 22.0406C11.5772 23.0805 11 24.4844 11 25.9474C11 27.4103 11.5772 28.8142 12.6063 29.8541L16.8153 34.1075C17.2801 34.5771 17.677 35.1013 18 35.6649C18.323 35.1013 18.7199 34.5771 19.1847 34.1075L23.3937 29.8541C24.4228 28.8142 25 27.4103 25 25.9474C25 24.4844 24.4228 23.0805 23.3937 22.0406L19.1847 17.7872C18.7199 17.3176 18.323 16.7934 18 16.2298ZM26 22.1912C25.677 21.6276 25.2801 21.1034 24.8153 20.6338L20.6063 16.3804C19.5772 15.3406 19 13.9367 19 12.4737C19 11.0107 19.5772 9.60681 20.6063 8.56693L24.8153 4.31355C25.2801 3.84394 25.677 3.31974 26 2.75614C26.323 3.31974 26.7199 3.84394 27.1847 4.31355L31.3937 8.56693C32.4228 9.60681 33 11.0107 33 12.4737C33 13.9367 32.4228 15.3406 31.3937 16.3804L27.1847 20.6338C26.7199 21.1034 26.323 21.6276 26 22.1912ZM34 16.2298C33.677 16.7934 33.2801 17.3176 32.8153 17.7872L28.6063 22.0406C27.5772 23.0805 27 24.4844 27 25.9474C27 27.4103 27.5772 28.8142 28.6063 29.8541L32.8153 34.1075C33.2801 34.5771 33.677 35.1013 34 35.6649C34.323 35.1013 34.7199 34.5771 35.1847 34.1075L39.3937 29.8541C40.4228 28.8142 41 27.4103 41 25.9474C41 24.4844 40.4228 23.0805 39.3937 22.0406L35.1847 17.7872C34.7199 17.3176 34.323 16.7934 34 16.2298ZM33 39.4211C33 37.9581 32.4228 36.5542 31.3937 35.5143L27.1847 31.2609C26.7199 30.7913 26.323 30.2671 26 29.7035C25.677 30.2671 25.2801 30.7913 24.8153 31.2609L20.6063 35.5143C19.5772 36.5542 19 37.9581 19 39.4211C19 40.884 19.5772 42.2879 20.6063 43.3278L24.8153 47.5812C25.2801 48.0508 25.677 48.575 26 49.1386C26.323 48.575 26.7199 48.0508 27.1847 47.5812L31.3937 43.3278C32.4228 42.2879 33 40.884 33 39.4211Z" fill="white"/>
</g>
<rect x="-0.5" y="0.5" width="51" height="51" transform="matrix(-1 0 0 1 51 0)" stroke="#15425C"/>
<defs>
<clipPath id="clip0_42_13414">
<rect width="30" height="30" fill="white" transform="translate(11 11)"/>
</clipPath>
</defs>
</svg>
