<svg width="24" height="42" viewBox="0 0 24 42" fill="none" xmlns="http://www.w3.org/2000/svg">
<g clip-path="url(#clip0_111_29556)">
<path d="M-5.96046e-08 0V1.4C-5.96046e-08 3.19744 0.691423 4.92599 1.93103 6.22759L10.069 14.7724C11.3086 16.074 12 17.8026 12 19.6V22.4C12 24.1974 11.3086 25.926 10.069 27.2276L1.93103 35.7724C0.691424 37.074 -5.96046e-08 38.8026 -5.96046e-08 40.6V42" stroke="#ABC4D2"/>
<path d="M24 0V1.4C24 3.19744 23.3086 4.92599 22.069 6.22759L13.931 14.7724C12.6914 16.074 12 17.8026 12 19.6V22.4C12 24.1974 12.6914 25.926 13.931 27.2276L22.069 35.7724C23.3086 37.074 24 38.8026 24 40.6V42" stroke="#ABC4D2"/>
</g>
<defs>
<clipPath id="clip0_111_29556">
<rect width="24" height="42" fill="white"/>
</clipPath>
</defs>
</svg>
